<?xml version="1.0" standalone="no"?>
<!DOCTYPE svg PUBLIC "-//W3C//DTD SVG 20010904//EN"
 "http://www.w3.org/TR/2001/REC-SVG-20010904/DTD/svg10.dtd">
<svg version="1.0" xmlns="http://www.w3.org/2000/svg"
 width="1256.000000pt" height="1256.000000pt" viewBox="0 0 1256.000000 1256.000000"
 preserveAspectRatio="xMidYMid meet">
<metadata>
Created by potrace 1.11, written by Peter Selinger 2001-2013
</metadata>
<g transform="translate(0.000000,1256.000000) scale(0.100000,-0.100000)"
fill="#000000" stroke="none">
<path d="M5850 12319 c-245 -133 -479 -259 -520 -281 -386 -210 -738 -359
-1110 -469 -74 -22 -142 -42 -150 -44 -8 -2 -71 -17 -140 -34 -69 -18 -138
-34 -155 -36 -16 -3 -50 -10 -75 -15 -89 -19 -294 -53 -405 -66 -33 -3 -67 -8
-76 -9 -8 -2 -52 -6 -96 -10 -44 -3 -93 -8 -109 -10 -202 -25 -888 -25 -1229
0 -74 5 -213 13 -353 20 -193 9 -362 22 -424 31 -35 5 -38 4 -39 -18 -1 -33 3
-269 7 -363 1 -44 5 -244 8 -445 5 -350 12 -582 21 -755 2 -44 7 -138 10 -210
6 -136 9 -200 21 -375 3 -58 8 -125 9 -150 7 -129 17 -279 20 -310 2 -20 6
-80 10 -135 3 -55 8 -120 10 -145 4 -44 9 -108 20 -265 3 -44 7 -102 10 -130
2 -27 7 -81 10 -120 3 -38 8 -88 10 -110 2 -22 7 -80 11 -130 3 -49 8 -98 10
-109 2 -10 6 -53 10 -94 3 -42 7 -84 9 -93 2 -10 6 -49 10 -86 3 -37 8 -79 10
-93 5 -27 11 -68 20 -145 3 -27 8 -59 10 -70 2 -11 7 -42 10 -70 11 -90 56
-371 88 -545 8 -41 19 -104 23 -125 14 -77 55 -258 110 -480 206 -840 478
-1514 877 -2175 74 -123 210 -334 248 -385 286 -386 337 -452 528 -675 218
-254 524 -564 781 -790 47 -41 89 -80 95 -86 5 -6 42 -37 80 -70 39 -32 72
-61 75 -64 41 -41 389 -322 645 -521 368 -286 570 -435 865 -637 41 -28 93
-64 115 -80 252 -178 494 -332 522 -332 9 0 50 21 92 47 98 60 474 310 506
336 6 4 95 68 198 142 245 175 622 459 862 649 105 83 196 155 203 161 7 5 21
17 30 26 9 8 53 44 97 79 393 315 872 775 1190 1145 28 32 55 63 60 69 6 6 72
88 146 181 571 718 935 1385 1227 2250 55 163 142 449 168 555 2 8 22 87 44
175 37 144 110 469 125 553 3 18 12 63 19 100 8 37 17 83 20 102 3 19 14 89
25 155 11 66 23 138 26 160 3 22 8 51 10 65 6 35 11 66 31 218 2 17 6 48 9 68
3 19 8 56 11 82 3 26 7 58 9 72 2 14 7 61 11 105 3 44 8 87 9 96 2 9 7 52 11
95 3 43 8 90 9 104 14 144 28 329 40 535 6 106 13 217 20 300 2 33 7 103 10
155 3 52 8 120 10 150 3 30 7 98 10 150 3 52 7 122 10 155 4 55 10 165 21 340
9 159 16 575 10 591 -6 14 -10 13 -30 -11 -14 -16 -54 -79 -90 -140 -67 -113
-113 -183 -509 -773 -119 -178 -217 -325 -217 -327 0 -2 -31 -50 -69 -107
-165 -249 -394 -615 -406 -647 -7 -20 -15 -92 -19 -161 -4 -69 -9 -143 -11
-165 -7 -73 -17 -169 -21 -215 -2 -25 -7 -67 -10 -95 -4 -27 -8 -61 -9 -75 -5
-49 -17 -145 -21 -165 -2 -10 -6 -37 -9 -60 -3 -22 -8 -51 -10 -65 -3 -14 -7
-45 -10 -70 -3 -25 -12 -81 -20 -125 -23 -128 -25 -138 -31 -175 -3 -19 -9
-53 -14 -75 -5 -22 -11 -53 -14 -70 -3 -16 -15 -75 -26 -130 -29 -138 -29
-135 -34 -153 -3 -9 -7 -28 -10 -42 -2 -14 -9 -43 -15 -65 -5 -22 -21 -85 -35
-140 -34 -138 -63 -247 -88 -330 -126 -422 -224 -692 -345 -955 -43 -94 -159
-322 -192 -378 -17 -29 -31 -55 -31 -57 0 -2 -13 -24 -30 -48 -16 -25 -30 -48
-30 -51 0 -10 -170 -265 -264 -396 -291 -406 -702 -854 -1170 -1275 -49 -44
-97 -87 -105 -95 -20 -18 -170 -146 -301 -256 -312 -262 -941 -733 -1066 -797
l-30 -16 -280 203 c-328 236 -677 501 -704 535 -3 3 -27 24 -55 46 -27 22 -61
50 -75 61 -14 12 -79 68 -145 124 -66 56 -124 107 -130 113 -5 7 -28 27 -50
46 -275 234 -765 738 -970 996 -21 28 -42 52 -45 55 -38 32 -370 499 -370 520
0 5 -4 10 -10 10 -5 0 -10 7 -10 15 0 8 -4 15 -10 15 -5 0 -10 5 -10 10 0 6
-22 45 -48 88 -117 186 -256 464 -372 742 -101 241 -195 521 -305 905 -17 60
-75 300 -82 335 -2 14 -8 41 -13 60 -12 45 -67 315 -79 388 -6 31 -15 84 -21
117 -6 33 -13 76 -16 95 -3 19 -12 78 -20 130 -9 52 -17 111 -20 130 -2 19 -6
46 -9 60 -2 14 -7 48 -11 75 -3 28 -7 61 -9 75 -6 37 -15 110 -19 150 -2 19
-7 62 -10 95 -4 33 -9 71 -11 85 -2 14 -7 54 -10 90 -8 95 -14 159 -19 210 -3
25 -8 77 -11 115 -3 39 -8 90 -10 115 -3 25 -7 81 -10 125 -3 44 -7 107 -10
140 -2 33 -7 103 -10 155 -3 52 -8 124 -10 160 -3 36 -7 112 -10 170 -2 58 -7
166 -11 240 -8 190 -11 259 -19 470 -3 102 -8 224 -10 273 -3 83 -2 87 18 88
12 0 99 2 192 4 303 6 753 28 835 40 14 2 57 6 95 10 92 8 146 14 225 25 36 5
83 12 105 15 22 3 54 8 70 10 17 3 43 7 59 10 16 2 52 9 80 14 28 6 62 13 76
15 14 3 36 7 50 10 14 3 36 8 50 11 14 3 35 7 46 9 86 17 374 99 544 155 340
114 782 298 1055 440 72 37 164 82 205 99 42 17 139 67 217 110 l140 79 34
-16 c87 -43 303 -159 380 -206 47 -28 101 -57 120 -65 70 -28 277 -121 429
-192 365 -172 938 -357 1375 -444 105 -21 244 -46 269 -49 17 -1 42 -5 56 -9
14 -3 52 -8 85 -12 33 -3 76 -8 95 -10 36 -4 146 -13 168 -13 6 -1 12 -5 12
-9 0 -30 -231 -401 -575 -922 -110 -168 -236 -359 -279 -425 -232 -357 -710
-1094 -807 -1243 -41 -64 -179 -277 -306 -472 -126 -195 -258 -398 -292 -450
-33 -52 -66 -102 -71 -110 -11 -16 -45 -69 -70 -107 -8 -13 -116 -179 -240
-370 -124 -190 -259 -403 -302 -472 -103 -170 -96 -172 -243 43 -44 65 -134
196 -200 291 -122 177 -277 403 -396 575 -36 52 -166 241 -289 420 -123 179
-315 458 -426 620 -112 162 -206 300 -211 305 -4 6 -16 22 -25 36 l-17 26
-735 0 c-405 0 -736 -3 -736 -7 0 -9 102 -167 194 -301 190 -277 1037 -1512
1155 -1684 37 -55 96 -140 131 -190 34 -49 91 -133 126 -185 35 -52 124 -182
197 -287 72 -106 168 -246 212 -310 44 -65 109 -160 145 -211 36 -52 72 -105
80 -118 8 -12 52 -76 96 -141 45 -65 145 -210 222 -323 77 -113 155 -226 174
-252 18 -25 115 -167 215 -315 176 -259 232 -333 251 -333 11 0 275 397 802
1207 252 388 276 425 381 588 57 88 149 230 205 315 55 85 177 272 269 415 92
143 187 289 210 325 23 36 73 112 110 170 38 58 172 265 298 460 126 195 244
378 262 405 18 28 162 250 320 495 158 245 318 492 356 550 70 107 163 251
285 440 38 58 123 189 191 293 67 103 161 251 208 330 48 78 110 172 138 209
29 37 72 106 97 154 25 48 91 150 148 228 57 78 140 199 185 270 45 72 126
198 179 280 53 83 171 268 263 411 92 143 218 340 281 439 63 98 112 181 110
184 -11 10 -366 0 -446 -12 -22 -4 -78 -9 -235 -21 -22 -2 -94 -7 -160 -10
-66 -4 -147 -9 -180 -11 -74 -4 -674 -4 -770 0 -133 7 -310 17 -335 21 -14 2
-59 7 -100 11 -41 3 -86 8 -100 9 -14 2 -52 6 -85 10 -33 3 -67 8 -75 10 -8 3
-35 7 -60 10 -25 3 -52 7 -60 10 -8 2 -35 7 -60 10 -281 40 -867 231 -1285
420 -381 172 -570 271 -960 501 -104 61 -233 135 -285 162 l-96 51 -444 -240z"/>
</g>
</svg>
