<?xml version="1.0" standalone="no"?>
<!DOCTYPE svg PUBLIC "-//W3C//DTD SVG 20010904//EN"
 "http://www.w3.org/TR/2001/REC-SVG-20010904/DTD/svg10.dtd">
<svg version="1.0" xmlns="http://www.w3.org/2000/svg"
 width="1920.000000pt" height="1920.000000pt" viewBox="0 0 1920.000000 1920.000000"
 preserveAspectRatio="xMidYMid meet">
<metadata>
Created by potrace 1.11, written by Peter Selinger 2001-2013
</metadata>
<g transform="translate(0.000000,1920.000000) scale(0.100000,-0.100000)"
fill="#000000" stroke="none">
<path d="M5367 14184 c-1 -1 -69 -5 -152 -9 -223 -10 -236 -11 -435 -40 -14
-2 -44 -7 -68 -10 -37 -5 -193 -35 -261 -49 -13 -3 -60 -15 -105 -27 -45 -11
-88 -22 -96 -24 -183 -39 -595 -198 -839 -323 -303 -155 -627 -365 -831 -539
-14 -12 -61 -51 -105 -88 -96 -81 -364 -349 -461 -460 -38 -44 -71 -82 -74
-85 -3 -3 -44 -54 -91 -115 -104 -133 -253 -351 -341 -500 -87 -147 -266 -508
-283 -570 -2 -5 -17 -43 -35 -84 -17 -41 -34 -81 -36 -90 -2 -9 -27 -83 -55
-166 -72 -216 -148 -525 -174 -715 -3 -25 -10 -72 -15 -105 -5 -33 -12 -89
-15 -125 -3 -36 -8 -83 -10 -105 -2 -22 -7 -104 -10 -181 l-7 -142 551 1 c498
0 551 2 552 16 1 9 2 41 4 71 3 68 16 238 21 265 2 11 6 47 9 80 4 32 8 62 10
65 2 3 6 26 10 50 3 25 15 86 26 135 170 773 593 1463 1204 1965 137 113 268
204 455 318 54 32 347 178 420 208 229 94 562 187 785 218 117 17 177 23 300
31 122 9 358 9 440 1 33 -3 87 -8 120 -11 33 -3 71 -7 85 -10 14 -2 48 -7 75
-11 28 -3 59 -8 70 -10 11 -1 34 -5 50 -8 17 -3 41 -8 55 -11 14 -3 36 -8 50
-11 14 -2 61 -14 105 -25 819 -207 1547 -714 2028 -1414 178 -259 312 -523
419 -820 65 -180 136 -459 154 -605 1 -8 4 -31 7 -50 6 -35 11 -79 22 -175 4
-27 8 -149 10 -270 6 -295 15 -433 40 -605 2 -14 6 -45 9 -70 7 -56 23 -142
62 -334 11 -55 59 -235 90 -336 115 -372 308 -790 512 -1105 88 -137 97 -150
123 -185 112 -153 149 -201 184 -245 22 -27 42 -52 45 -55 3 -3 34 -39 70 -80
180 -209 374 -396 617 -595 7 -5 18 -15 25 -20 7 -6 33 -26 57 -45 25 -19 55
-42 67 -50 12 -8 50 -35 85 -60 513 -362 1093 -612 1704 -734 94 -19 194 -38
224 -41 30 -4 63 -9 75 -11 11 -2 48 -6 81 -9 33 -3 76 -8 95 -10 184 -21 572
-22 810 -1 110 10 186 18 190 21 3 2 34 6 70 10 36 4 108 15 160 25 52 11 111
22 130 25 19 3 51 10 70 15 19 5 91 23 160 40 171 43 415 125 595 199 155 65
409 188 483 235 23 14 44 26 47 26 11 0 256 157 360 231 229 163 374 287 585
498 336 337 601 706 823 1146 59 116 107 222 107 235 0 5 -276 8 -613 8 l-613
0 -45 -66 c-63 -94 -192 -266 -257 -342 -57 -66 -299 -310 -363 -365 -337
-291 -759 -531 -1185 -673 -86 -29 -331 -96 -384 -106 -14 -2 -63 -11 -110
-20 -47 -8 -107 -18 -135 -21 -27 -4 -61 -8 -75 -11 -147 -25 -662 -25 -821 1
-13 2 -45 6 -70 9 -74 10 -252 44 -320 61 -35 10 -75 19 -89 22 -53 9 -350
113 -455 158 -92 39 -278 131 -335 165 -196 116 -388 246 -486 329 -17 14 -57
49 -90 76 -122 104 -280 268 -438 455 -83 98 -246 340 -321 475 -192 347 -339
757 -395 1105 -7 41 -14 82 -15 91 -4 18 -16 109 -21 154 -4 39 -13 253 -19
485 -3 102 -7 194 -9 205 -2 11 -7 54 -10 95 -7 84 -8 85 -36 260 -22 139 -20
128 -50 260 -79 351 -189 667 -369 1053 -70 152 -74 161 -109 222 -19 33 -46
80 -60 105 -25 45 -217 338 -246 375 -187 241 -248 314 -371 443 -186 195
-369 360 -560 503 -66 50 -127 96 -135 102 -8 7 -55 39 -105 71 -281 185 -504
301 -880 456 -153 63 -430 147 -650 196 -39 9 -220 43 -259 49 -21 3 -48 7
-60 10 -21 4 -56 9 -166 21 -30 3 -71 7 -90 9 -69 8 -467 24 -473 19z"/>
<path d="M13248 14165 c-2 -2 -48 -6 -103 -10 -55 -3 -111 -8 -125 -10 -14 -2
-46 -6 -72 -9 -122 -15 -151 -19 -268 -42 -218 -41 -237 -45 -434 -100 -373
-104 -769 -277 -1111 -484 -171 -103 -489 -330 -577 -412 -7 -7 -56 -51 -108
-98 -163 -147 -328 -320 -502 -528 -79 -95 -318 -438 -318 -456 0 -4 11 -23
23 -44 64 -101 140 -258 264 -542 61 -142 195 -534 218 -641 2 -8 11 -46 20
-83 9 -37 18 -73 19 -81 5 -33 14 -20 40 63 64 198 167 434 269 617 44 79 185
301 209 330 5 5 34 44 65 85 184 247 471 521 748 717 443 313 1004 533 1525
598 30 4 64 9 75 11 96 18 521 25 700 11 87 -7 258 -28 335 -43 14 -2 40 -7
58 -10 62 -10 276 -65 377 -95 281 -86 620 -248 854 -408 13 -9 31 -20 40 -26
24 -15 203 -150 226 -172 11 -10 38 -33 60 -52 151 -127 399 -398 493 -537 7
-11 36 -53 65 -94 29 -41 63 -92 76 -112 12 -21 26 -38 29 -39 43 -4 1234 0
1238 4 3 3 -24 66 -61 141 -467 949 -1276 1728 -2245 2164 -365 164 -817 294
-1205 347 -22 3 -53 7 -70 10 -16 2 -64 7 -105 10 -41 4 -86 9 -100 12 -27 6
-616 13 -622 8z"/>
<path d="M17127 10803 c-1 -1 -31 -4 -67 -7 -315 -26 -592 -172 -765 -401 -74
-99 -160 -272 -180 -365 -1 -8 -8 -33 -13 -55 -6 -22 -14 -62 -17 -90 -4 -27
-8 -61 -11 -75 -6 -33 -5 -284 1 -335 57 -454 316 -785 715 -913 36 -12 76
-23 90 -26 14 -3 52 -10 85 -17 69 -13 332 -17 420 -6 445 59 766 326 888 738
42 140 51 214 51 394 0 167 -5 231 -26 310 -6 22 -12 50 -14 62 -9 46 -58 170
-97 243 -162 305 -470 500 -845 536 -68 6 -212 11 -215 7z m218 -471 c58 -18
115 -44 115 -53 0 -5 6 -9 13 -9 20 0 106 -87 141 -144 76 -120 108 -260 111
-476 3 -354 -123 -594 -353 -671 -70 -23 -217 -31 -292 -16 -48 10 -150 50
-150 59 0 5 -6 8 -13 8 -19 0 -120 110 -150 163 -69 124 -97 274 -93 487 4
184 21 269 79 390 68 143 195 246 334 270 57 10 216 5 258 -8z"/>
</g>
</svg>
