<?xml version="1.0" encoding="UTF-8" standalone="no"?>
<!-- Created with Inkscape (http://www.inkscape.org/) -->
<svg id="svg3372" xmlns:rdf="http://www.w3.org/1999/02/22-rdf-syntax-ns#" xmlns="http://www.w3.org/2000/svg" height="525.69" width="587.47" version="1.1" xmlns:cc="http://creativecommons.org/ns#" xmlns:dc="http://purl.org/dc/elements/1.1/">
 <metadata id="metadata3377">
  <rdf:RDF>
   <cc:Work rdf:about="">
    <dc:format>image/svg+xml</dc:format>
    <dc:type rdf:resource="http://purl.org/dc/dcmitype/StillImage"/>
    <dc:title/>
   </cc:Work>
  </rdf:RDF>
 </metadata>
 <g id="layer1" stroke-linejoin="miter" transform="translate(-83.40625,-258.0625)" stroke="#000" stroke-linecap="butt" stroke-width="1px" fill="none">
  <path id="path3025-1" d="m84.117,366.94,55.089,99.346,12.689-3.7139-56.017-100.58z"/>
  <path id="path3045-7" d="m95.877,362.14,55.708,100.58,13.308-3.4044-57.255-102.44z"/>
  <path id="path3065-4" d="m201.46,448.97,5.7229,16.453,5.0076,27.184,7.869,55.083,4.2922,73.683,2.1461,80.836,4.2922,50.076,12.877,6.4383,0.71536-86.559-0.71536-60.091-2.1461-67.96-2.8614-50.076-6.4383-47.214-5.7229-30.761z"/>
  <path id="path3085-0" d="m107.72,356.59,56.654,103.19,38.444-10.117,23.269-31.362,11.128,67.782,7.0818,116.34-1.0117,154.79,23.269,10.117,45.526,9.1051,58.677,6.0701,58.677-2.0234,85.993-19.222-1.0117-160.86,4.0467-97.121,8.0934-91.051,25.292,30.35,38.444,10.117,56.654-103.19-98.133-36.42-82.958-21.245-36.42-8.0934-20.234,9.1051-22.257,6.0701-26.304,0-19.222-4.0467-25.292-8.0934z"/>
  <path id="path3105-9" d="m526.05,413.24-9.1051,90.039-3.035,142.65,1.0117,118.37,13.152-5.0584,4.0467-64.747,4.0467-99.144,4.0467-76.888,12.14-74.864z"/>
  <path id="path3125-4" d="m590.05,452.22,56.479-102.78,11.493,4.5972-55.166,102.12z"/>
  <path id="path3145-8" d="m658.35,353.88-55.494,102.45,12.478,3.2837,54.838-100.48z"/>
  <path id="path3165-8" d="m317.15,286.43,2.3908-7.8553,18.443,6.1476,15.711,3.2446,21.004,1.1954,15.198-1.1954,17.931-3.7569,19.126-6.4892,2.5615,6.3184-20.492,9.3922-22.541,5.6353-23.907,0-23.737-5.123z"/>
  <path id="path3185-2" d="m322.51,271.48-2.7403,7.3076,22.314,7.0466,21.401,3.0013,18.53,0.13049,22.575-3.7843,22.575-7.1771-3.1318-7.699-21.27,6.2636-15.659,2.8708-14.746,1.1744-17.095-0.78296-18.008-3.5233z"/>
  <path id="path3205-4" d="m326.94,258.75-4.1758,12.136s11.875,4.4367,12.397,4.5672c0.52197,0.13049,13.441,2.8708,13.441,2.8708l16.964,1.9574,18.66-0.78296,18.66-2.8708,21.009-6.3941-4.8282-11.614-26.49,4.8282-17.877,0.91345-25.838-1.5659z"/>
  <path id="path3225-5" d="m437.65,426.74-6.7866,2.6735-5.7583,4.5244-5.7583,5.7583-3.9074,6.7866-2.8792,9.0488-0.82261,5.1414,75.681,0-0.82261-6.9922-2.8792-7.8148-5.7583-8.8431-8.0205-6.5809-11.105-4.5244-6.9922-1.2339-8.8431,0.41131z"/>
  <path id="path3245-5" d="m411.64,460.88,0.41131,6.5809,1.0283,6.7866,2.0565,5.347,3.7018,5.7583,62.724-0.82262,2.8792-4.9357,1.8509-6.1696,1.0283-5.5527,0.20565-3.9074-0.20565-3.0848z"/>
  <path id="path3265-1" d="m419.04,485.56,6.3753,6.7866,6.9922,4.5244,7.6092,2.8792,10.077,1.4396,7.4036-0.61696,5.964-1.6452,6.1696-2.2622,5.5527-4.1131,3.4961-3.2905,3.0848-4.3187z"/>
  <path id="path3285-7" d="m244.75,612.55,78.149-63.341,100.36,151.36-27.146,44.421-93.778-141.49-57.583,46.889z"/>
  <path id="path3305-1" d="m244.34,652.45,0,106.94,46.067,13.984,53.47,8.2262,34.55,1.6452l40.3-1.65-115.99-176.86z"/>
  <path id="path3326-1" d="m395.29,744.58,22.211,34.55,46.889-7.4036,50.18-12.339,0-86.375-46.889-41.131z"/>
 </g>
</svg>
