<?xml version="1.0" standalone="no"?>
<!DOCTYPE svg PUBLIC "-//W3C//DTD SVG 20010904//EN"
 "http://www.w3.org/TR/2001/REC-SVG-20010904/DTD/svg10.dtd">
<svg version="1.0" xmlns="http://www.w3.org/2000/svg"
 width="401.000000pt" height="401.000000pt" viewBox="0 0 401.000000 401.000000"
 preserveAspectRatio="xMidYMid meet">
<metadata>
Created by potrace 1.11, written by Peter Selinger 2001-2013
</metadata>
<g transform="translate(0.000000,401.000000) scale(0.100000,-0.100000)"
fill="#000000" stroke="none">
<path d="M3629 4006 c-4 -4 -53 -14 -104 -21 -11 -1 -20 -3 -20 -5 0 -2 -48
-9 -75 -11 -8 0 -22 -3 -30 -6 -8 -3 -28 -7 -45 -8 -16 -2 -37 -5 -45 -8 -8
-2 -54 -9 -102 -17 -49 -7 -88 -17 -88 -21 0 -5 -6 -6 -13 -3 -8 3 -34 0 -58
-5 -24 -5 -66 -13 -94 -16 -27 -4 -54 -11 -60 -15 -5 -4 -17 -6 -26 -5 -9 2
-38 -1 -65 -7 -27 -5 -62 -11 -79 -14 -16 -3 -41 -7 -55 -11 -14 -3 -32 -7
-40 -8 -8 -1 -31 -4 -50 -8 -19 -4 -51 -9 -70 -13 -43 -7 -65 -12 -65 -14 0
-1 -22 -3 -49 -6 -27 -3 -57 -9 -66 -14 -10 -5 -20 -7 -23 -3 -3 3 -14 2 -24
-2 -10 -4 -35 -9 -56 -11 -21 -2 -47 -8 -56 -14 -10 -5 -21 -7 -24 -4 -3 4
-30 0 -59 -7 -29 -7 -57 -12 -61 -11 -5 1 -25 -2 -46 -8 -20 -5 -56 -12 -79
-15 -24 -3 -91 -15 -150 -26 -120 -24 -131 -25 -187 -34 -22 -3 -74 -12 -115
-20 -76 -15 -239 -44 -275 -49 -11 -2 -33 -6 -50 -9 -16 -4 -46 -9 -65 -12
-56 -9 -253 -45 -280 -52 -14 -3 -30 -6 -35 -5 -6 1 -55 -7 -110 -18 -112 -23
-149 -30 -185 -34 -14 -2 -49 -7 -78 -11 l-52 -8 0 -1207 c0 -957 3 -1210 13
-1214 7 -4 8 -8 2 -11 -11 -5 -11 -107 -1 -124 4 -6 4 -11 -1 -11 -10 0 -8
-93 1 -109 4 -6 4 -11 -1 -11 -10 0 -8 -93 1 -109 4 -6 4 -11 -1 -11 -8 0 -9
-97 -2 -105 2 -2 2 -87 -1 -190 -3 -111 -1 -190 4 -196 6 -6 6 -9 0 -9 -13 0
-4 -81 10 -85 29 -11 98 -12 142 -3 27 5 72 13 99 18 181 33 215 41 215 51 0
5 10 9 23 9 12 0 29 4 37 10 9 5 19 5 27 -2 13 -10 97 -3 118 10 13 8 26 11
95 18 30 3 57 9 58 15 2 5 8 7 13 4 8 -5 113 11 149 22 8 3 26 6 40 8 62 5
130 18 130 25 0 4 10 6 23 5 12 -1 50 4 85 11 72 15 114 23 157 29 17 3 44 8
60 11 30 7 35 8 90 18 70 11 130 24 130 26 0 2 61 9 88 10 9 1 17 4 17 8 0 4
12 7 28 6 15 0 43 3 62 8 19 5 52 11 73 13 21 3 43 7 49 11 5 4 33 8 61 10 28
3 56 9 62 14 7 5 14 8 17 5 2 -3 27 0 54 5 27 6 63 12 79 15 17 3 53 9 80 15
82 17 98 20 145 26 25 3 54 8 65 11 11 4 27 7 35 9 35 5 121 21 130 24 3 1 9
2 14 1 5 -1 16 1 25 5 9 3 35 8 59 10 24 2 48 6 54 10 5 4 30 8 55 10 25 2 51
8 58 14 6 5 14 7 17 5 3 -3 25 -1 49 4 49 11 85 18 144 26 22 4 49 9 60 12 20
7 28 9 53 11 9 2 12 349 12 1702 l0 1700 -23 0 c-13 0 -26 -2 -28 -4z"/>
</g>
</svg>
