<?xml version="1.0" standalone="no"?>
<!DOCTYPE svg PUBLIC "-//W3C//DTD SVG 20010904//EN"
 "http://www.w3.org/TR/2001/REC-SVG-20010904/DTD/svg10.dtd">
<svg version="1.0" xmlns="http://www.w3.org/2000/svg"
 width="73.000000pt" height="73.000000pt" viewBox="0 0 73.000000 73.000000"
 preserveAspectRatio="xMidYMid meet">
<metadata>
Created by potrace 1.11, written by Peter Selinger 2001-2013
</metadata>
<g transform="translate(0.000000,73.000000) scale(0.100000,-0.100000)"
fill="#000000" stroke="none">
<path d="M137 590 c-88 -90 -126 -136 -123 -148 3 -9 10 -36 16 -60 6 -24 17
-45 24 -48 8 -3 26 -50 42 -106 31 -106 29 -104 104 -127 34 -10 34 -10 -10
-4 -25 3 -54 10 -65 15 -20 9 -20 9 -1 -6 11 -9 26 -16 34 -16 8 0 61 -12 119
-26 58 -14 107 -23 110 -21 2 3 -31 13 -74 23 -43 9 -73 19 -67 21 6 2 57 -8
114 -21 56 -14 107 -23 113 -19 6 4 7 1 3 -6 -5 -7 -20 -10 -39 -7 l-32 5 32
-11 33 -11 124 129 c122 126 138 150 116 184 -7 11 -8 5 -4 -20 4 -33 0 -40
-76 -115 -44 -44 -80 -76 -80 -71 0 4 34 43 76 86 l76 78 -26 89 c-28 94 -32
117 -16 93 8 -11 9 -7 4 15 -12 51 -25 75 -19 35 l5 -35 -14 35 c-18 43 -21
73 -6 50 13 -20 13 0 -1 39 -6 17 -16 31 -22 31 -7 0 -23 3 -37 5 -22 5 -22 4
-5 -4 39 -19 -10 -11 -150 24 l-140 34 -82 -82 c-105 -103 -109 -92 -5 14 l77
80 69 -16 c37 -9 70 -14 73 -11 2 2 -19 9 -49 15 -29 7 -62 14 -73 17 -17 4
-48 -22 -148 -126z m-83 -220 c5 -23 4 -30 -2 -20 -6 8 -13 31 -16 50 -5 23
-4 30 2 20 6 -8 13 -31 16 -50z"/>
<path d="M435 671 c11 -4 38 -11 60 -14 25 -4 33 -4 20 2 -11 4 -38 11 -60 14
-25 4 -33 4 -20 -2z"/>
<path d="M676 420 c4 -19 10 -42 15 -50 11 -18 1 34 -13 65 -5 13 -6 9 -2 -15z"/>
<path d="M56 295 c4 -16 11 -37 15 -45 6 -10 7 -4 3 15 -4 17 -11 37 -15 45
-6 10 -7 4 -3 -15z"/>
<path d="M86 195 c11 -48 25 -76 18 -35 -4 19 -10 42 -15 50 -6 10 -7 5 -3
-15z"/>
</g>
</svg>
