<?xml version="1.0" encoding="UTF-8" standalone="no"?>
<!-- Created with Inkscape (http://www.inkscape.org/) -->

<svg
   xmlns:dc="http://purl.org/dc/elements/1.1/"
   xmlns:cc="http://creativecommons.org/ns#"
   xmlns:rdf="http://www.w3.org/1999/02/22-rdf-syntax-ns#"
   xmlns:svg="http://www.w3.org/2000/svg"
   xmlns="http://www.w3.org/2000/svg"
   xmlns:sodipodi="http://sodipodi.sourceforge.net/DTD/sodipodi-0.dtd"
   xmlns:inkscape="http://www.inkscape.org/namespaces/inkscape"
   width="16mm"
   height="16mm"
   viewBox="0 0 56.692915 56.692915"
   id="svg3896"
   version="1.1"
   inkscape:version="0.91 r13725"
   sodipodi:docname="clinicas.svg">
  <defs
     id="defs3898" />
  <sodipodi:namedview
     id="base"
     pagecolor="#ffffff"
     bordercolor="#666666"
     borderopacity="1.0"
     inkscape:pageopacity="0.0"
     inkscape:pageshadow="2"
     inkscape:zoom="0.83146278"
     inkscape:cx="150.14915"
     inkscape:cy="45.101237"
     inkscape:document-units="px"
     inkscape:current-layer="layer1"
     showgrid="false"
     inkscape:window-width="1920"
     inkscape:window-height="1027"
     inkscape:window-x="1912"
     inkscape:window-y="5"
     inkscape:window-maximized="1" />
  <metadata
     id="metadata3901">
    <rdf:RDF>
      <cc:Work
         rdf:about="">
        <dc:format>image/svg+xml</dc:format>
        <dc:type
           rdf:resource="http://purl.org/dc/dcmitype/StillImage" />
        <dc:title />
      </cc:Work>
    </rdf:RDF>
  </metadata>
  <g
     inkscape:label="Camada 1"
     inkscape:groupmode="layer"
     id="layer1"
     transform="translate(0,-995.6693)">
    <path
       style="clip-rule:evenodd;fill:#e40421;fill-rule:evenodd"
       inkscape:connector-curvature="0"
       class="st0"
       d="m 28.346458,1002.1158 -9.6,4.5 0,3 -8.4,4.4 0,11.3 8.4,4.6 0,11.4 9.4,4.6 9.5,-5 0,-1.2 8.7,-5.3 0,-11.8 -8.7,-4.5 0,-11.8 -9.3,-4.2 z m -0.3,1.8 6.7,3.1 -6.3,3.4 -6.8,-3.3 6.4,-3.2 z m -7.9,5.2 6.5,3.5 0,11 9.3,4.9 0,8.9 -9.3,-5.1 0,11.4 -6.4,-3.6 -0.1,-11.4 -8.2,-4.4 0,-8.8 8.2,4.6 0,-11 z m -1.4,2.9 0,4.3 -3.8,-2.1 3.8,-2.2 z m 18.1,7.8 6.8,3.3 -6.5,3.7 -7,-3.6 6.7,-3.4 z m 0,0"
       id="path3932" />
  </g>
  <style
     id="style3926"
     type="text/css">
	.st0{fill-rule:evenodd;clip-rule:evenodd;fill:#E40421;}
	.st1{fill-rule:evenodd;clip-rule:evenodd;fill:#FFFFFF;}
</style>
</svg>
