<?xml version="1.0" encoding="UTF-8" standalone="no"?>
<!-- Created with Inkscape (http://www.inkscape.org/) -->

<svg
   xmlns:dc="http://purl.org/dc/elements/1.1/"
   xmlns:cc="http://creativecommons.org/ns#"
   xmlns:rdf="http://www.w3.org/1999/02/22-rdf-syntax-ns#"
   xmlns:svg="http://www.w3.org/2000/svg"
   xmlns="http://www.w3.org/2000/svg"
   xmlns:sodipodi="http://sodipodi.sourceforge.net/DTD/sodipodi-0.dtd"
   xmlns:inkscape="http://www.inkscape.org/namespaces/inkscape"
   width="16mm"
   height="16mm"
   viewBox="0 0 56.692915 56.692915"
   id="svg3896"
   version="1.1"
   inkscape:version="0.91 r13725"
   sodipodi:docname="financeira.svg">
  <defs
     id="defs3898" />
  <sodipodi:namedview
     id="base"
     pagecolor="#ffffff"
     bordercolor="#666666"
     borderopacity="1.0"
     inkscape:pageopacity="0.0"
     inkscape:pageshadow="2"
     inkscape:zoom="0.83146278"
     inkscape:cx="150.14915"
     inkscape:cy="45.101237"
     inkscape:document-units="px"
     inkscape:current-layer="layer1"
     showgrid="false"
     inkscape:window-width="1920"
     inkscape:window-height="1027"
     inkscape:window-x="1912"
     inkscape:window-y="5"
     inkscape:window-maximized="1" />
  <metadata
     id="metadata3901">
    <rdf:RDF>
      <cc:Work
         rdf:about="">
        <dc:format>image/svg+xml</dc:format>
        <dc:type
           rdf:resource="http://purl.org/dc/dcmitype/StillImage" />
        <dc:title />
      </cc:Work>
    </rdf:RDF>
  </metadata>
  <g
     inkscape:label="Camada 1"
     inkscape:groupmode="layer"
     id="layer1"
     transform="translate(0,-995.6693)">
    <g
       id="g3954"
       transform="translate(-428.85354,872.66576)">
      <polygon
         style="clip-rule:evenodd;fill:#e40421;fill-rule:evenodd"
         class="st0"
         points="476.1,138.1 457.2,128.2 438.3,138.1 438.3,164.6 457.2,174.5 476.1,164.6 "
         id="polygon3956" />
      <g
         id="g3958">
        <polygon
           style="clip-rule:evenodd;fill:#ffffff;fill-rule:evenodd"
           class="st1"
           points="442.8,139.1 456.9,146.3 471.6,139.1 457.2,131.6 "
           id="polygon3960" />
        <polygon
           style="clip-rule:evenodd;fill:#ffffff;fill-rule:evenodd"
           class="st1"
           points="456.2,170.6 456.2,149.1 441.3,141.5 441.3,162.8 "
           id="polygon3962" />
      </g>
      <path
         style="clip-rule:evenodd;fill:#e40421;fill-rule:evenodd"
         inkscape:connector-curvature="0"
         class="st0"
         d="m 447.1,147.1 c -0.2,0 -0.4,0 -0.5,0 -1.5,0.3 -2.5,1.6 -3.1,3.3 -0.6,1.8 -0.7,4 -0.3,6.4 0.4,2.4 1.3,4.5 2.5,5.9 1.2,1.5 2.6,2.3 4.1,2.1 1.5,-0.3 2.5,-1.6 3.1,-3.3 0,-0.1 0.1,-0.2 0.1,-0.4 l 0.4,0.2 1.4,-1 0,-2.1 -1.4,-0.6 c 0,-0.8 -0.1,-1.7 -0.2,-2.6 -0.4,-2.4 -1.3,-4.5 -2.5,-5.9 -1.1,-1.2 -2.4,-2 -3.6,-2 l 0,0 z m 0,0.8 c 1,0 2,0.6 2.9,1.8 1,1.3 1.9,3.3 2.3,5.6 0.1,0.7 0.2,1.4 0.2,2.1 l -1.7,-0.8 c 0,-0.1 0,-0.1 0,-0.2 -0.1,-1.9 -1,-3.9 -2.9,-4.9 -0.8,0.2 -2.7,0.8 -2.7,0.8 0,0 -0.7,0.7 -0.9,1.4 -0.2,0.8 -0.3,1.9 -0.1,3 0.2,1.1 0.5,2.1 1,2.8 0.2,0.3 0.8,0.8 0.8,0.8 0,0 1.9,0.7 2.8,1 l 0.2,-0.1 c 0.5,-0.3 0.9,-0.8 1.3,-1.4 l 2.1,1 c 0,0.2 -0.1,0.3 -0.1,0.5 -0.5,1.6 -1.4,2.6 -2.5,2.8 -1.1,0.2 -2.3,-0.4 -3.3,-1.8 -1,-1.3 -1.9,-3.3 -2.3,-5.6 -0.4,-2.3 -0.3,-4.4 0.3,-6 0.5,-1.6 1.4,-2.6 2.5,-2.8 -0.2,0 -0.1,0 0.1,0 l 0,0 z m 0.5,4.5 c 1.5,0.9 2.3,2.4 2.4,4.1 l -1.6,-0.1 c 0,-0.1 0,-0.3 0,-0.4 -0.2,-1.1 -0.5,-2.1 -1,-2.8 -0.2,-0.2 -0.4,-0.4 -0.6,-0.6 l 0.8,-0.2 z m -1.9,0.6 c 0.1,0 0.3,0 0.4,0.1 0.2,0.1 0.4,0.3 0.6,0.6 0.4,0.6 0.7,1.4 0.9,2.4 0.1,1 0.1,2 -0.1,2.6 -0.2,0.7 -0.5,1 -0.8,1.1 -0.1,0 -0.3,0 -0.4,-0.1 -0.2,-0.1 -0.4,-0.3 -0.6,-0.6 -0.4,-0.6 -0.7,-1.4 -0.9,-2.4 -0.1,-1 -0.1,-1.9 0.1,-2.6 0.2,-0.7 0.6,-1.1 0.8,-1.1 l 0,0 z m 8.6,5.8 0,1.5 -1,0.7 0,-1.5 1,-0.7 z m -6.1,0.1 1.1,0.5 c -0.2,0.4 -0.5,0.7 -0.8,1 l -0.9,-0.3 c 0.2,-0.3 0.5,-0.7 0.6,-1.2 l 0,0 z m 0,0"
         id="path3964" />
    </g>
  </g>
  <style
     id="style3926"
     type="text/css">
	.st0{fill-rule:evenodd;clip-rule:evenodd;fill:#E40421;}
	.st1{fill-rule:evenodd;clip-rule:evenodd;fill:#FFFFFF;}
</style>
</svg>
