<?xml version="1.0" encoding="UTF-8" standalone="no"?>
<!-- Created with Inkscape (http://www.inkscape.org/) -->

<svg
   xmlns:dc="http://purl.org/dc/elements/1.1/"
   xmlns:cc="http://creativecommons.org/ns#"
   xmlns:rdf="http://www.w3.org/1999/02/22-rdf-syntax-ns#"
   xmlns:svg="http://www.w3.org/2000/svg"
   xmlns="http://www.w3.org/2000/svg"
   xmlns:sodipodi="http://sodipodi.sourceforge.net/DTD/sodipodi-0.dtd"
   xmlns:inkscape="http://www.inkscape.org/namespaces/inkscape"
   width="16mm"
   height="16mm"
   viewBox="0 0 56.692915 56.692915"
   id="svg3896"
   version="1.1"
   inkscape:version="0.91 r13725"
   sodipodi:docname="frota.svg">
  <defs
     id="defs3898" />
  <sodipodi:namedview
     id="base"
     pagecolor="#ffffff"
     bordercolor="#666666"
     borderopacity="1.0"
     inkscape:pageopacity="0.0"
     inkscape:pageshadow="2"
     inkscape:zoom="0.83146278"
     inkscape:cx="150.14915"
     inkscape:cy="45.101237"
     inkscape:document-units="px"
     inkscape:current-layer="layer1"
     showgrid="false"
     inkscape:window-width="1920"
     inkscape:window-height="1027"
     inkscape:window-x="1912"
     inkscape:window-y="5"
     inkscape:window-maximized="1" />
  <metadata
     id="metadata3901">
    <rdf:RDF>
      <cc:Work
         rdf:about="">
        <dc:format>image/svg+xml</dc:format>
        <dc:type
           rdf:resource="http://purl.org/dc/dcmitype/StillImage" />
        <dc:title />
      </cc:Work>
    </rdf:RDF>
  </metadata>
  <g
     inkscape:label="Camada 1"
     inkscape:groupmode="layer"
     id="layer1"
     transform="translate(0,-995.6693)">
    <path
       style="clip-rule:evenodd;fill:#e40421;fill-rule:evenodd"
       inkscape:connector-curvature="0"
       class="st0"
       d="m 35.246458,1002.9627 -23.7,11.5 0,6.7 -2.2999996,6.3 -1.6,0.9 0,8 14.6999996,8.2 3.7,-2.5 3.1,2.7 c 4.7,1.5 7,-2.7 7.8,-8.5 l 1.5,-0.6 2.5,1.8 0.9,1 c 2.9,2.8 6.7,-2.1 6.9,-7.1 l -0.6,-2.1 0.7,-0.4 0.2,-18.8 -13.8,-7.1 z m -0.7,2.5 10.9,5.6 -19.5,10.7 -11.3,-6.2 19.9,-10.1 z m -20.7,13.2 10.2,5.5 -3.4,10.1 -10,-5.6 3.2,-10 z m 31.9,9.4 c 0.1,0 0.3,0 0.4,0.1 1.1,0.4 1.4,2.8 0.7,5.3 -0.7,2.5 -2.3,4.2 -3.4,3.8 -1.1,-0.4 -1.4,-2.8 -0.7,-5.3 0.6,-2.2 1.9,-3.9 3,-3.9 l 0,0 z m -35.8999996,2.3 11.4999996,6.2 0,4.5 -11.4999996,-6.4 0,-4.3 z m 23.5999996,3.2 c 0.1,0 0.2,0 0.4,0.1 1.1,0.4 1.4,2.8 0.7,5.3 -0.7,2.5 -2.3,4.2 -3.4,3.8 -1.1,-0.4 -1.4,-2.8 -0.7,-5.3 0.6,-2.3 1.9,-3.9 3,-3.9 l 0,0 z m 0,0"
       id="path3938" />
  </g>
  <style
     id="style3926"
     type="text/css">
	.st0{fill-rule:evenodd;clip-rule:evenodd;fill:#E40421;}
	.st1{fill-rule:evenodd;clip-rule:evenodd;fill:#FFFFFF;}
</style>
</svg>
