<?xml version="1.0" encoding="UTF-8" standalone="no"?>
<!-- Created with Inkscape (http://www.inkscape.org/) -->

<svg
   xmlns:dc="http://purl.org/dc/elements/1.1/"
   xmlns:cc="http://creativecommons.org/ns#"
   xmlns:rdf="http://www.w3.org/1999/02/22-rdf-syntax-ns#"
   xmlns:svg="http://www.w3.org/2000/svg"
   xmlns="http://www.w3.org/2000/svg"
   xmlns:sodipodi="http://sodipodi.sourceforge.net/DTD/sodipodi-0.dtd"
   xmlns:inkscape="http://www.inkscape.org/namespaces/inkscape"
   width="16mm"
   height="16mm"
   viewBox="0 0 56.692915 56.692915"
   id="svg3896"
   version="1.1"
   inkscape:version="0.91 r13725"
   sodipodi:docname="industria_prod.svg">
  <defs
     id="defs3898" />
  <sodipodi:namedview
     id="base"
     pagecolor="#ffffff"
     bordercolor="#666666"
     borderopacity="1.0"
     inkscape:pageopacity="0.0"
     inkscape:pageshadow="2"
     inkscape:zoom="0.83146278"
     inkscape:cx="372.04724"
     inkscape:cy="45.101237"
     inkscape:document-units="px"
     inkscape:current-layer="layer1"
     showgrid="false"
     inkscape:window-width="1920"
     inkscape:window-height="1027"
     inkscape:window-x="1912"
     inkscape:window-y="5"
     inkscape:window-maximized="1" />
  <metadata
     id="metadata3901">
    <rdf:RDF>
      <cc:Work
         rdf:about="">
        <dc:format>image/svg+xml</dc:format>
        <dc:type
           rdf:resource="http://purl.org/dc/dcmitype/StillImage" />
        <dc:title></dc:title>
      </cc:Work>
    </rdf:RDF>
  </metadata>
  <g
     inkscape:label="Camada 1"
     inkscape:groupmode="layer"
     id="layer1"
     transform="translate(0,-995.6693)">
    <path
       style="clip-rule:evenodd;fill:#e40421;fill-rule:evenodd"
       inkscape:connector-curvature="0"
       class="st0"
       d="m 21.846458,1001.6925 c -3.9,0.1 -7.9,1.5 -10.6,4.7 l -2.1999996,1.5 c 0,0 -0.6,3.3999 -0.7,5.1 -0.9,7.9 -2.1,14 -2.9,23.6 5.0999996,13.8 28.6999996,11.5 31.5999996,2.1 3.8,-2.1 7.8,-4.2 11.6,-6.3 l 1.4,0 1.2,-1 -0.1,-9.7 -11.2,-6.2 -2,-0.5 -2.1,-1.1 c -0.1,-2.9 -0.7,-5.4 -0.7,-5.4 l -1.8,-2 c -1.6,-2.9001 -6.5,-4.9001 -11.5,-4.8001 l 0,0 z m -0.4,2.5 c 1.4,0 2.8,0.2 3.9,0.5 2.9,0.8 6.5,3.5 6.2,5.2 -0.2,1.6999 -1.8,2.1999 -4.4,2.3999 -2.7,0.1001 -5.9,-0.1 -8,-1.6999 -2.1,-1.6 -3.2,-3.3001 -2.5,-4.9 0.4,-1.1 2.6,-1.5 4.8,-1.5 l 0,0 z m -9.1,9.9 c 3.7,2.6 6.8,3.8 10.9,3.3 l 0.1,2.1 c -4,0.6 -8.6,-0.7001 -11.1,-3.2001 l 0.1,-2.1999 z m 23.8,2 11.6,6.2 -10.8,5.8 -0.8,-12 z m -24.8,4.6999 c 3.7,2.7001 7.4,4.1001 12.2,3.3001 l 0.6,18 c -5.1,0.4 -12,-0.5 -14.6999996,-6.6 l 1.8999996,-14.7001 z m 0,0"
       id="path3952" />
  </g>
  <style
     id="style3926"
     type="text/css">
	.st0{fill-rule:evenodd;clip-rule:evenodd;fill:#E40421;}
	.st1{fill-rule:evenodd;clip-rule:evenodd;fill:#FFFFFF;}
</style>
</svg>
