<?xml version="1.0" encoding="UTF-8" standalone="no"?>
<!-- Created with Inkscape (http://www.inkscape.org/) -->

<svg
   xmlns:dc="http://purl.org/dc/elements/1.1/"
   xmlns:cc="http://creativecommons.org/ns#"
   xmlns:rdf="http://www.w3.org/1999/02/22-rdf-syntax-ns#"
   xmlns:svg="http://www.w3.org/2000/svg"
   xmlns="http://www.w3.org/2000/svg"
   xmlns:sodipodi="http://sodipodi.sourceforge.net/DTD/sodipodi-0.dtd"
   xmlns:inkscape="http://www.inkscape.org/namespaces/inkscape"
   width="16mm"
   height="16mm"
   viewBox="0 0 56.692915 56.692915"
   id="svg3896"
   version="1.1"
   inkscape:version="0.91 r13725"
   sodipodi:docname="restauracao.svg">
  <defs
     id="defs3898" />
  <sodipodi:namedview
     id="base"
     pagecolor="#ffffff"
     bordercolor="#666666"
     borderopacity="1.0"
     inkscape:pageopacity="0.0"
     inkscape:pageshadow="2"
     inkscape:zoom="0.83146278"
     inkscape:cx="150.14915"
     inkscape:cy="45.101237"
     inkscape:document-units="px"
     inkscape:current-layer="layer1"
     showgrid="false"
     inkscape:window-width="1920"
     inkscape:window-height="1027"
     inkscape:window-x="1912"
     inkscape:window-y="5"
     inkscape:window-maximized="1" />
  <metadata
     id="metadata3901">
    <rdf:RDF>
      <cc:Work
         rdf:about="">
        <dc:format>image/svg+xml</dc:format>
        <dc:type
           rdf:resource="http://purl.org/dc/dcmitype/StillImage" />
        <dc:title />
      </cc:Work>
    </rdf:RDF>
  </metadata>
  <g
     inkscape:label="Camada 1"
     inkscape:groupmode="layer"
     id="layer1"
     transform="translate(0,-995.6693)">
    <path
       style="clip-rule:evenodd;fill:#e40421;fill-rule:evenodd"
       inkscape:connector-curvature="0"
       class="st0"
       d="m 21.396458,1001.0158 -8.2,4.2 -0.3,0.5 -0.1,8.8 0.9,0.5 1.6,-1 0,2.4 -5.3999996,2.7 0,13.8 2.3999996,1.6 0,6.2 0.8,1 1.2,-0.7 0,-5.4 10.2,5.5 0,5.1 1,0.8 1.1,-0.5 0,-4.3 2,1.2 4.1,-2.5 0,0.8 1.3,0.5 0.9,-0.6 0,-1.8 7.4,-4.5 0,5.7 1.3,0.9 1.3,-0.9 0,-7 1.9,-1.1 0,-13.9 -3.4,-1.9 0,-2 1.5,0.8 0.8,-0.5 0,-9.3 -9.3,-4.8 -1.3,0.2 0,9.1 1.4,0.7 0,2.3 -7.5,-3.7 -8.1,3.7 0,-2.6 1.7,-1 0,-8.9 -1.2,0 z m 0.1,1.8 0,6 -7,3.5 0,-5.8 7,-3.7 z m 15.5,0.4 7.2,3.6 0,6.1 -7.2,-3.7 0,-6 z m -16.9,8.2 0,2.7 -3.3,1.7 0,-2.6 3.3,-1.8 z m 18.4,0.7 3.6,1.9 0,2.3 -3.6,-1.8 0,-2.4 z m -9.3,0.5 14.1,7 -14.2,7.8 -14.8,-7.7 14.9,-7.1 z m -16.5,9.1 15.1,8 0,9.8 -14.9,-8.4 -0.2,-9.4 z m 0,0"
       id="path3934" />
  </g>
  <style
     id="style3926"
     type="text/css">
	.st0{fill-rule:evenodd;clip-rule:evenodd;fill:#E40421;}
	.st1{fill-rule:evenodd;clip-rule:evenodd;fill:#FFFFFF;}
</style>
</svg>
