<?xml version="1.0" encoding="UTF-8" standalone="no"?>
<!-- Created with Inkscape (http://www.inkscape.org/) -->

<svg
   xmlns:dc="http://purl.org/dc/elements/1.1/"
   xmlns:cc="http://creativecommons.org/ns#"
   xmlns:rdf="http://www.w3.org/1999/02/22-rdf-syntax-ns#"
   xmlns:svg="http://www.w3.org/2000/svg"
   xmlns="http://www.w3.org/2000/svg"
   xmlns:sodipodi="http://sodipodi.sourceforge.net/DTD/sodipodi-0.dtd"
   xmlns:inkscape="http://www.inkscape.org/namespaces/inkscape"
   width="16mm"
   height="16mm"
   viewBox="0 0 56.692915 56.692915"
   id="svg3896"
   version="1.1"
   inkscape:version="0.91 r13725"
   sodipodi:docname="retalho.svg">
  <defs
     id="defs3898" />
  <sodipodi:namedview
     id="base"
     pagecolor="#ffffff"
     bordercolor="#666666"
     borderopacity="1.0"
     inkscape:pageopacity="0.0"
     inkscape:pageshadow="2"
     inkscape:zoom="0.83146278"
     inkscape:cx="150.14915"
     inkscape:cy="45.101237"
     inkscape:document-units="px"
     inkscape:current-layer="layer1"
     showgrid="false"
     inkscape:window-width="1920"
     inkscape:window-height="1027"
     inkscape:window-x="1912"
     inkscape:window-y="5"
     inkscape:window-maximized="1" />
  <metadata
     id="metadata3901">
    <rdf:RDF>
      <cc:Work
         rdf:about="">
        <dc:format>image/svg+xml</dc:format>
        <dc:type
           rdf:resource="http://purl.org/dc/dcmitype/StillImage" />
        <dc:title />
      </cc:Work>
    </rdf:RDF>
  </metadata>
  <g
     inkscape:label="Camada 1"
     inkscape:groupmode="layer"
     id="layer1"
     transform="translate(0,-995.6693)">
    <path
       style="clip-rule:evenodd;fill:#e40421;fill-rule:evenodd"
       inkscape:connector-curvature="0"
       class="st0"
       d="m 26.196458,999.51576 -1.6,0.90004 0,6.4 -4.6,-2.5 -1.5,0.6 -0.2,6.7 -4.4,1.6 0.3,25.2 18,10.1 10.5,-6.1 0.1,-23.7 -5.1,-3.1 0,-9.6 -11.5,-6.50004 z m 0.5,2.70004 8.9,5.2 0,6.9 -4.3,-2.5 0,-1.5 -4.6,-2.8 0,-5.3 z m -6.7,4.1 4.5,2.4 -4.5,2 0,-4.4 z m 4.5,4.6 4.8,3 0,6.1 -5.4,-3.1 0,-1.7 0.6,0 0,-4.3 z m 6.9,4.2 6.7,4 -5.3,3.1 -1.3,-0.9 -0.1,-6.2 z m -15,1.1 14.8,8.7 0.3,20 -15.1,-8.4 0,-20.3 z m 0,0"
       id="path3940" />
  </g>
  <style
     id="style3926"
     type="text/css">
	.st0{fill-rule:evenodd;clip-rule:evenodd;fill:#E40421;}
	.st1{fill-rule:evenodd;clip-rule:evenodd;fill:#FFFFFF;}
</style>
</svg>
