<?xml version="1.0" encoding="UTF-8" standalone="no"?>
<!-- Created with Inkscape (http://www.inkscape.org/) -->

<svg
   xmlns:dc="http://purl.org/dc/elements/1.1/"
   xmlns:cc="http://creativecommons.org/ns#"
   xmlns:rdf="http://www.w3.org/1999/02/22-rdf-syntax-ns#"
   xmlns:svg="http://www.w3.org/2000/svg"
   xmlns="http://www.w3.org/2000/svg"
   xmlns:sodipodi="http://sodipodi.sourceforge.net/DTD/sodipodi-0.dtd"
   xmlns:inkscape="http://www.inkscape.org/namespaces/inkscape"
   width="16mm"
   height="16mm"
   viewBox="0 0 56.692915 56.692915"
   id="svg3896"
   version="1.1"
   inkscape:version="0.91 r13725"
   sodipodi:docname="suporte_tec.svg">
  <defs
     id="defs3898" />
  <sodipodi:namedview
     id="base"
     pagecolor="#ffffff"
     bordercolor="#666666"
     borderopacity="1.0"
     inkscape:pageopacity="0.0"
     inkscape:pageshadow="2"
     inkscape:zoom="0.83146278"
     inkscape:cx="150.14915"
     inkscape:cy="45.101237"
     inkscape:document-units="px"
     inkscape:current-layer="layer1"
     showgrid="false"
     inkscape:window-width="1920"
     inkscape:window-height="1027"
     inkscape:window-x="1912"
     inkscape:window-y="5"
     inkscape:window-maximized="1" />
  <metadata
     id="metadata3901">
    <rdf:RDF>
      <cc:Work
         rdf:about="">
        <dc:format>image/svg+xml</dc:format>
        <dc:type
           rdf:resource="http://purl.org/dc/dcmitype/StillImage" />
        <dc:title />
      </cc:Work>
    </rdf:RDF>
  </metadata>
  <g
     inkscape:label="Camada 1"
     inkscape:groupmode="layer"
     id="layer1"
     transform="translate(0,-995.6693)">
    <path
       style="clip-rule:evenodd;fill:#e40421;fill-rule:evenodd"
       inkscape:connector-curvature="0"
       class="st0"
       d="m 30.32399,1004.5241 c -4.4,0.2 -9.2,3 -13,8.9 -18.29999996,13.6 0.5,42.7 19.9,24 2.3,2.4 7,1.7 8.7,-2.2 1.7,-3.9 1.2,-8.4 -3.4,-10.4 1.4,-13.3 -4.9,-20.5 -12.2,-20.3 l 0,0 z m 0.4,2.6 c 5.7,0.1 10.2,5.5 8.9,14.4 -3.6,-7.7 -10.5,-11.4 -19.2,-8.6 3.1,-4.1 6.9,-5.9 10.3,-5.8 l 0,0 z m -5,7.7 c 4.1,0.1 9.3,2.4 12.8,9.8 -4,2.3 -4.7,6.7 -3.8,8.8 -2,0.7 -4.9,0.4 -7.4,-0.1 -3.8,-4.5 -8.1,0.9 -5,3.9 1.1,1 5,1.3 5.1,-2.2 3.7,0.7 5.4,0.8 7.8,0 -3.7,5.7 -11.5,5.9 -15.7,3.8 -4.2,-2.1 -7.4,-8.1 -6.5,-13.5 0.9,-5.3 4.2,-8 8,-9.7 1.2,-0.5 2.8,-0.8 4.7,-0.8 l 0,0 z m 0,0"
       id="path3942" />
  </g>
  <style
     id="style3926"
     type="text/css">
	.st0{fill-rule:evenodd;clip-rule:evenodd;fill:#E40421;}
	.st1{fill-rule:evenodd;clip-rule:evenodd;fill:#FFFFFF;}
</style>
</svg>
