<?xml version="1.0" encoding="UTF-8" standalone="no"?>
<!-- Generator: Adobe Illustrator 19.0.0, SVG Export Plug-In . SVG Version: 6.00 Build 0)  -->

<svg
   xmlns:dc="http://purl.org/dc/elements/1.1/"
   xmlns:cc="http://creativecommons.org/ns#"
   xmlns:rdf="http://www.w3.org/1999/02/22-rdf-syntax-ns#"
   xmlns:svg="http://www.w3.org/2000/svg"
   xmlns="http://www.w3.org/2000/svg"
   xmlns:sodipodi="http://sodipodi.sourceforge.net/DTD/sodipodi-0.dtd"
   xmlns:inkscape="http://www.inkscape.org/namespaces/inkscape"
   version="1.1"
   id="Layer_1"
   x="0px"
   y="0px"
   viewBox="0 0 512 512"
   style="enable-background:new 0 0 512 512;"
   xml:space="preserve"
   inkscape:version="0.91 r13725"
   sodipodi:docname="phc.svg"><metadata
     id="metadata49"><rdf:RDF><cc:Work
         rdf:about=""><dc:format>image/svg+xml</dc:format><dc:type
           rdf:resource="http://purl.org/dc/dcmitype/StillImage" /><dc:title></dc:title></cc:Work></rdf:RDF></metadata><defs
     id="defs47" /><sodipodi:namedview
     pagecolor="#ffffff"
     bordercolor="#666666"
     borderopacity="1"
     objecttolerance="10"
     gridtolerance="10"
     guidetolerance="10"
     inkscape:pageopacity="0"
     inkscape:pageshadow="2"
     inkscape:window-width="1920"
     inkscape:window-height="1027"
     id="namedview45"
     showgrid="false"
     inkscape:zoom="0.4609375"
     inkscape:cx="-144.27119"
     inkscape:cy="256"
     inkscape:window-x="1912"
     inkscape:window-y="5"
     inkscape:window-maximized="1"
     inkscape:current-layer="Layer_1" /><g
     id="g15" /><g
     id="g17" /><g
     id="g19" /><g
     id="g21" /><g
     id="g23" /><g
     id="g25" /><g
     id="g27" /><g
     id="g29" /><g
     id="g31" /><g
     id="g33" /><g
     id="g35" /><g
     id="g37" /><g
     id="g39" /><g
     id="g41" /><g
     id="g43" /><g
     transform="matrix(2.0219918,0,0,2.0155066,11.338983,32.505299)"
     id="g3413"
     style="fill:#ffffff"><path
       d="m 190.3,86.6 39,0 12.7,0 0,-17.6 -56.9,0 c -16.9,1.1 -24.5,12 -24.5,12 0,0 -6.3,-12 -25.6,-12 l -41.5,0 0,-38.3 -17.6,0 0,41.8 c 0,0 -7,-3.5 -18.7,-3.5 C 55.7,69 0,69 0,69 l 0,17.7 49.8,0 c 21.4,0 26.1,9.3 26.1,17.2 l -0.1,11.8 c -0.2,9.7 -3.1,15.6 -22.2,15.6 l -43.4,0 C 0,131.4 0,141.6 0,141.6 l 0,30.1 17.6,0 0,-22.8 14.6,0 28.7,0 c 29.9,0 32.5,-14.9 32.5,-34.9 0,-4.3 0,-9.9 0,-10.1 C 93.3,91.7 89,86.8 89,86.7 l 42.5,0 c 20.6,0 20.9,13.1 21,17.7 l 0,44.5 17.6,0 0,-4.1 c 4.6,2.4 8.8,4.1 19.7,4.1 0.7,0 52.1,0 52.1,0 l 0,-17.5 -51.9,0 c -5.4,0 -10.6,-0.9 -14.5,-4.3 -3.8,-3.3 -5.6,-7.8 -5.5,-13.1 l 0,-10.1 c 0.6,-9.7 9.3,-17.3 20.3,-17.3 z"
       id="path3415"
       inkscape:connector-curvature="0"
       style="fill:#ffffff" /></g></svg>